<mxfile host="app.diagrams.net" modified="2024-05-20T12:49:42.014Z" agent="Mozilla/5.0 (Macintosh; Intel Mac OS X 10_15_7) AppleWebKit/537.36 (KHTML, like Gecko) Chrome/124.0.0.0 Safari/537.36" etag="lElot1huYbBYhxy4q0_d" version="24.4.4" type="github">
  <diagram name="Page-1" id="8IiNoh8LABF6EW4CPtuq">
    <mxGraphModel dx="1193" dy="758" grid="1" gridSize="18" guides="1" tooltips="1" connect="1" arrows="1" fold="1" page="1" pageScale="1" pageWidth="850" pageHeight="1100" math="0" shadow="0">
      <root>
        <mxCell id="0" />
        <mxCell id="1" parent="0" />
        <mxCell id="zDr4J4621kcgVv7S480j-266" value="" style="edgeStyle=orthogonalEdgeStyle;rounded=0;orthogonalLoop=1;jettySize=auto;html=1;" parent="1" source="zDr4J4621kcgVv7S480j-264" target="zDr4J4621kcgVv7S480j-265" edge="1">
          <mxGeometry relative="1" as="geometry" />
        </mxCell>
        <mxCell id="zDr4J4621kcgVv7S480j-264" value="Mulai" style="ellipse;whiteSpace=wrap;html=1;" parent="1" vertex="1">
          <mxGeometry x="21" y="54" width="105" height="48" as="geometry" />
        </mxCell>
        <mxCell id="zDr4J4621kcgVv7S480j-270" value="" style="edgeStyle=orthogonalEdgeStyle;rounded=0;orthogonalLoop=1;jettySize=auto;html=1;" parent="1" source="zDr4J4621kcgVv7S480j-265" target="zDr4J4621kcgVv7S480j-269" edge="1">
          <mxGeometry relative="1" as="geometry" />
        </mxCell>
        <mxCell id="zDr4J4621kcgVv7S480j-265" value="User Memasuki Aplikasi" style="whiteSpace=wrap;html=1;" parent="1" vertex="1">
          <mxGeometry x="180" y="48" width="89.5" height="60" as="geometry" />
        </mxCell>
        <mxCell id="zDr4J4621kcgVv7S480j-272" value="" style="edgeStyle=orthogonalEdgeStyle;rounded=0;orthogonalLoop=1;jettySize=auto;html=1;" parent="1" source="zDr4J4621kcgVv7S480j-269" target="zDr4J4621kcgVv7S480j-271" edge="1">
          <mxGeometry relative="1" as="geometry" />
        </mxCell>
        <mxCell id="zDr4J4621kcgVv7S480j-269" value="User memilih Get Started" style="whiteSpace=wrap;html=1;" parent="1" vertex="1">
          <mxGeometry x="306" y="48" width="89.5" height="60" as="geometry" />
        </mxCell>
        <mxCell id="zDr4J4621kcgVv7S480j-276" value="" style="edgeStyle=orthogonalEdgeStyle;rounded=0;orthogonalLoop=1;jettySize=auto;html=1;" parent="1" source="zDr4J4621kcgVv7S480j-271" target="zDr4J4621kcgVv7S480j-275" edge="1">
          <mxGeometry relative="1" as="geometry" />
        </mxCell>
        <mxCell id="zDr4J4621kcgVv7S480j-271" value="User Login" style="whiteSpace=wrap;html=1;" parent="1" vertex="1">
          <mxGeometry x="431" y="48" width="89.5" height="60" as="geometry" />
        </mxCell>
        <mxCell id="zDr4J4621kcgVv7S480j-278" value="" style="edgeStyle=orthogonalEdgeStyle;rounded=0;orthogonalLoop=1;jettySize=auto;html=1;" parent="1" source="zDr4J4621kcgVv7S480j-275" target="zDr4J4621kcgVv7S480j-277" edge="1">
          <mxGeometry relative="1" as="geometry" />
        </mxCell>
        <mxCell id="zDr4J4621kcgVv7S480j-353" value="Berhasil" style="edgeLabel;html=1;align=center;verticalAlign=middle;resizable=0;points=[];" parent="zDr4J4621kcgVv7S480j-278" vertex="1" connectable="0">
          <mxGeometry x="-0.2479" y="-1" relative="1" as="geometry">
            <mxPoint as="offset" />
          </mxGeometry>
        </mxCell>
        <mxCell id="zDr4J4621kcgVv7S480j-275" value="Proses Login" style="rhombus;whiteSpace=wrap;html=1;" parent="1" vertex="1">
          <mxGeometry x="558" y="38" width="80" height="80" as="geometry" />
        </mxCell>
        <mxCell id="zDr4J4621kcgVv7S480j-280" value="" style="edgeStyle=orthogonalEdgeStyle;rounded=0;orthogonalLoop=1;jettySize=auto;html=1;" parent="1" source="zDr4J4621kcgVv7S480j-277" target="zDr4J4621kcgVv7S480j-279" edge="1">
          <mxGeometry relative="1" as="geometry">
            <Array as="points">
              <mxPoint x="756" y="180" />
              <mxPoint x="756" y="180" />
            </Array>
          </mxGeometry>
        </mxCell>
        <mxCell id="zDr4J4621kcgVv7S480j-277" value="User di alihkan Halam Utama" style="whiteSpace=wrap;html=1;" parent="1" vertex="1">
          <mxGeometry x="698" y="48" width="120" height="60" as="geometry" />
        </mxCell>
        <mxCell id="zDr4J4621kcgVv7S480j-283" value="" style="edgeStyle=orthogonalEdgeStyle;rounded=0;orthogonalLoop=1;jettySize=auto;html=1;" parent="1" source="zDr4J4621kcgVv7S480j-279" target="zDr4J4621kcgVv7S480j-282" edge="1">
          <mxGeometry relative="1" as="geometry" />
        </mxCell>
        <mxCell id="zDr4J4621kcgVv7S480j-284" value="Memasuki menu Profil" style="edgeLabel;html=1;align=center;verticalAlign=middle;resizable=0;points=[];" parent="zDr4J4621kcgVv7S480j-283" vertex="1" connectable="0">
          <mxGeometry x="-0.1598" y="-1" relative="1" as="geometry">
            <mxPoint as="offset" />
          </mxGeometry>
        </mxCell>
        <mxCell id="zDr4J4621kcgVv7S480j-279" value="User memilih menu Profil" style="whiteSpace=wrap;html=1;" parent="1" vertex="1">
          <mxGeometry x="698" y="270" width="120" height="60" as="geometry" />
        </mxCell>
        <mxCell id="zDr4J4621kcgVv7S480j-286" value="" style="edgeStyle=orthogonalEdgeStyle;rounded=0;orthogonalLoop=1;jettySize=auto;html=1;" parent="1" source="zDr4J4621kcgVv7S480j-282" target="zDr4J4621kcgVv7S480j-285" edge="1">
          <mxGeometry relative="1" as="geometry" />
        </mxCell>
        <mxCell id="zDr4J4621kcgVv7S480j-282" value="User memilih menu edit profil" style="whiteSpace=wrap;html=1;" parent="1" vertex="1">
          <mxGeometry x="698" y="410" width="120" height="60" as="geometry" />
        </mxCell>
        <mxCell id="zDr4J4621kcgVv7S480j-285" value="User selesai mengedit profil" style="whiteSpace=wrap;html=1;" parent="1" vertex="1">
          <mxGeometry x="698" y="550" width="120" height="60" as="geometry" />
        </mxCell>
        <mxCell id="zDr4J4621kcgVv7S480j-287" value="" style="endArrow=none;html=1;rounded=0;" parent="1" edge="1">
          <mxGeometry width="50" height="50" relative="1" as="geometry">
            <mxPoint x="144" y="216" as="sourcePoint" />
            <mxPoint x="756" y="216" as="targetPoint" />
          </mxGeometry>
        </mxCell>
        <mxCell id="zDr4J4621kcgVv7S480j-288" value="" style="endArrow=classic;html=1;rounded=0;" parent="1" edge="1">
          <mxGeometry width="50" height="50" relative="1" as="geometry">
            <mxPoint x="611" y="216" as="sourcePoint" />
            <mxPoint x="611" y="270" as="targetPoint" />
          </mxGeometry>
        </mxCell>
        <mxCell id="zDr4J4621kcgVv7S480j-291" value="" style="edgeStyle=orthogonalEdgeStyle;rounded=0;orthogonalLoop=1;jettySize=auto;html=1;" parent="1" source="zDr4J4621kcgVv7S480j-289" target="zDr4J4621kcgVv7S480j-290" edge="1">
          <mxGeometry relative="1" as="geometry" />
        </mxCell>
        <mxCell id="zDr4J4621kcgVv7S480j-293" value="Memasuki menu lihat jadwal" style="edgeLabel;html=1;align=center;verticalAlign=middle;resizable=0;points=[];" parent="zDr4J4621kcgVv7S480j-291" vertex="1" connectable="0">
          <mxGeometry x="-0.275" y="2" relative="1" as="geometry">
            <mxPoint as="offset" />
          </mxGeometry>
        </mxCell>
        <mxCell id="zDr4J4621kcgVv7S480j-289" value="User memilih menu Buat Jadwal" style="whiteSpace=wrap;html=1;" parent="1" vertex="1">
          <mxGeometry x="553" y="270" width="120" height="60" as="geometry" />
        </mxCell>
        <mxCell id="zDr4J4621kcgVv7S480j-290" value="User mengisi form buat jadwal&amp;nbsp;" style="whiteSpace=wrap;html=1;" parent="1" vertex="1">
          <mxGeometry x="553" y="410" width="120" height="60" as="geometry" />
        </mxCell>
        <mxCell id="zDr4J4621kcgVv7S480j-299" value="" style="endArrow=classic;html=1;rounded=0;" parent="1" edge="1">
          <mxGeometry width="50" height="50" relative="1" as="geometry">
            <mxPoint x="436.5" y="216" as="sourcePoint" />
            <mxPoint x="436.5" y="270" as="targetPoint" />
          </mxGeometry>
        </mxCell>
        <mxCell id="zDr4J4621kcgVv7S480j-302" value="" style="edgeStyle=orthogonalEdgeStyle;rounded=0;orthogonalLoop=1;jettySize=auto;html=1;endArrow=none;endFill=0;" parent="1" source="zDr4J4621kcgVv7S480j-300" edge="1">
          <mxGeometry relative="1" as="geometry">
            <mxPoint x="443" y="396" as="targetPoint" />
          </mxGeometry>
        </mxCell>
        <mxCell id="zDr4J4621kcgVv7S480j-303" value="Memasuki menu Informasi" style="edgeLabel;html=1;align=center;verticalAlign=middle;resizable=0;points=[];" parent="zDr4J4621kcgVv7S480j-302" vertex="1" connectable="0">
          <mxGeometry x="-0.175" y="-1" relative="1" as="geometry">
            <mxPoint as="offset" />
          </mxGeometry>
        </mxCell>
        <mxCell id="zDr4J4621kcgVv7S480j-300" value="User memilih menu Informasi" style="whiteSpace=wrap;html=1;" parent="1" vertex="1">
          <mxGeometry x="383" y="270" width="120" height="60" as="geometry" />
        </mxCell>
        <mxCell id="zDr4J4621kcgVv7S480j-306" value="" style="endArrow=none;html=1;rounded=0;" parent="1" edge="1">
          <mxGeometry width="50" height="50" relative="1" as="geometry">
            <mxPoint x="383" y="396" as="sourcePoint" />
            <mxPoint x="492.5" y="396" as="targetPoint" />
          </mxGeometry>
        </mxCell>
        <mxCell id="zDr4J4621kcgVv7S480j-307" value="" style="endArrow=classic;html=1;rounded=0;" parent="1" edge="1">
          <mxGeometry width="50" height="50" relative="1" as="geometry">
            <mxPoint x="383.63" y="396" as="sourcePoint" />
            <mxPoint x="383.63" y="432" as="targetPoint" />
          </mxGeometry>
        </mxCell>
        <mxCell id="zDr4J4621kcgVv7S480j-308" value="User memilih Menu Berita&amp;nbsp;" style="whiteSpace=wrap;html=1;" parent="1" vertex="1">
          <mxGeometry x="342" y="434" width="84.5" height="36" as="geometry" />
        </mxCell>
        <mxCell id="zDr4J4621kcgVv7S480j-309" value="" style="endArrow=classic;html=1;rounded=0;" parent="1" edge="1">
          <mxGeometry width="50" height="50" relative="1" as="geometry">
            <mxPoint x="492" y="396" as="sourcePoint" />
            <mxPoint x="492" y="432" as="targetPoint" />
          </mxGeometry>
        </mxCell>
        <mxCell id="zDr4J4621kcgVv7S480j-310" value="User memilih Menu Galeri&amp;nbsp;" style="whiteSpace=wrap;html=1;" parent="1" vertex="1">
          <mxGeometry x="451" y="434" width="84.5" height="36" as="geometry" />
        </mxCell>
        <mxCell id="zDr4J4621kcgVv7S480j-315" value="" style="endArrow=classic;html=1;rounded=0;" parent="1" edge="1">
          <mxGeometry width="50" height="50" relative="1" as="geometry">
            <mxPoint x="143.5" y="216" as="sourcePoint" />
            <mxPoint x="143.5" y="270" as="targetPoint" />
          </mxGeometry>
        </mxCell>
        <mxCell id="zDr4J4621kcgVv7S480j-316" value="User memilih menu Administrasi" style="whiteSpace=wrap;html=1;" parent="1" vertex="1">
          <mxGeometry x="85" y="270" width="120" height="60" as="geometry" />
        </mxCell>
        <mxCell id="zDr4J4621kcgVv7S480j-317" value="" style="endArrow=none;html=1;rounded=0;" parent="1" edge="1">
          <mxGeometry width="50" height="50" relative="1" as="geometry">
            <mxPoint x="42" y="360" as="sourcePoint" />
            <mxPoint x="258" y="360" as="targetPoint" />
          </mxGeometry>
        </mxCell>
        <mxCell id="zDr4J4621kcgVv7S480j-318" value="" style="endArrow=none;html=1;rounded=0;" parent="1" edge="1">
          <mxGeometry width="50" height="50" relative="1" as="geometry">
            <mxPoint x="144" y="360" as="sourcePoint" />
            <mxPoint x="144.7" y="330" as="targetPoint" />
          </mxGeometry>
        </mxCell>
        <mxCell id="zDr4J4621kcgVv7S480j-365" value="Memasuki menu Informasi" style="edgeLabel;html=1;align=center;verticalAlign=middle;resizable=0;points=[];" parent="zDr4J4621kcgVv7S480j-318" vertex="1" connectable="0">
          <mxGeometry x="0.165" y="1" relative="1" as="geometry">
            <mxPoint y="-1" as="offset" />
          </mxGeometry>
        </mxCell>
        <mxCell id="zDr4J4621kcgVv7S480j-319" value="" style="endArrow=classic;html=1;rounded=0;" parent="1" edge="1">
          <mxGeometry width="50" height="50" relative="1" as="geometry">
            <mxPoint x="42.129999999999995" y="360" as="sourcePoint" />
            <mxPoint x="42.129999999999995" y="396" as="targetPoint" />
          </mxGeometry>
        </mxCell>
        <mxCell id="wuOp9hcM_mS-S1USVbeP-18" value="" style="edgeStyle=orthogonalEdgeStyle;rounded=0;orthogonalLoop=1;jettySize=auto;html=1;" edge="1" parent="1" source="zDr4J4621kcgVv7S480j-320" target="wuOp9hcM_mS-S1USVbeP-17">
          <mxGeometry relative="1" as="geometry" />
        </mxCell>
        <mxCell id="zDr4J4621kcgVv7S480j-320" value="&lt;font style=&quot;font-size: 10px;&quot;&gt;User memilih Menu Lapor&amp;nbsp;&lt;/font&gt;" style="whiteSpace=wrap;html=1;" parent="1" vertex="1">
          <mxGeometry x="0.5" y="398" width="71.5" height="34" as="geometry" />
        </mxCell>
        <mxCell id="zDr4J4621kcgVv7S480j-326" value="" style="endArrow=classic;html=1;rounded=0;" parent="1" edge="1">
          <mxGeometry width="50" height="50" relative="1" as="geometry">
            <mxPoint x="120.63" y="360" as="sourcePoint" />
            <mxPoint x="120.63" y="396" as="targetPoint" />
          </mxGeometry>
        </mxCell>
        <mxCell id="wuOp9hcM_mS-S1USVbeP-16" value="" style="edgeStyle=orthogonalEdgeStyle;rounded=0;orthogonalLoop=1;jettySize=auto;html=1;" edge="1" parent="1" source="zDr4J4621kcgVv7S480j-327" target="wuOp9hcM_mS-S1USVbeP-15">
          <mxGeometry relative="1" as="geometry" />
        </mxCell>
        <mxCell id="zDr4J4621kcgVv7S480j-327" value="&lt;font style=&quot;font-size: 8px;&quot;&gt;User memilih Menu Administrasi&amp;nbsp;&lt;/font&gt;" style="whiteSpace=wrap;html=1;" parent="1" vertex="1">
          <mxGeometry x="79" y="398" width="71.5" height="34" as="geometry" />
        </mxCell>
        <mxCell id="zDr4J4621kcgVv7S480j-328" value="" style="endArrow=classic;html=1;rounded=0;" parent="1" edge="1">
          <mxGeometry width="50" height="50" relative="1" as="geometry">
            <mxPoint x="183.63" y="360" as="sourcePoint" />
            <mxPoint x="183.63" y="396" as="targetPoint" />
          </mxGeometry>
        </mxCell>
        <mxCell id="wuOp9hcM_mS-S1USVbeP-14" value="" style="edgeStyle=orthogonalEdgeStyle;rounded=0;orthogonalLoop=1;jettySize=auto;html=1;" edge="1" parent="1" source="zDr4J4621kcgVv7S480j-329" target="wuOp9hcM_mS-S1USVbeP-13">
          <mxGeometry relative="1" as="geometry" />
        </mxCell>
        <mxCell id="zDr4J4621kcgVv7S480j-329" value="&lt;font style=&quot;font-size: 8px;&quot;&gt;User memilih Menu Buat jadwal&amp;nbsp;&lt;/font&gt;" style="whiteSpace=wrap;html=1;" parent="1" vertex="1">
          <mxGeometry x="157" y="398" width="71.5" height="34" as="geometry" />
        </mxCell>
        <mxCell id="zDr4J4621kcgVv7S480j-330" value="" style="endArrow=classic;html=1;rounded=0;" parent="1" edge="1">
          <mxGeometry width="50" height="50" relative="1" as="geometry">
            <mxPoint x="258.13" y="360" as="sourcePoint" />
            <mxPoint x="258.13" y="396" as="targetPoint" />
          </mxGeometry>
        </mxCell>
        <mxCell id="wuOp9hcM_mS-S1USVbeP-12" value="" style="edgeStyle=orthogonalEdgeStyle;rounded=0;orthogonalLoop=1;jettySize=auto;html=1;" edge="1" parent="1" source="zDr4J4621kcgVv7S480j-331" target="wuOp9hcM_mS-S1USVbeP-11">
          <mxGeometry relative="1" as="geometry" />
        </mxCell>
        <mxCell id="zDr4J4621kcgVv7S480j-331" value="&lt;font style=&quot;font-size: 8px;&quot;&gt;User memilih Menu keluh kesah&amp;nbsp;&lt;/font&gt;" style="whiteSpace=wrap;html=1;" parent="1" vertex="1">
          <mxGeometry x="234.5" y="398" width="71.5" height="34" as="geometry" />
        </mxCell>
        <mxCell id="zDr4J4621kcgVv7S480j-342" value="User memilih Menu keluar&amp;nbsp;" style="whiteSpace=wrap;html=1;" parent="1" vertex="1">
          <mxGeometry x="613.5" y="171" width="84.5" height="36" as="geometry" />
        </mxCell>
        <mxCell id="zDr4J4621kcgVv7S480j-343" value="" style="endArrow=none;html=1;rounded=0;" parent="1" edge="1">
          <mxGeometry width="50" height="50" relative="1" as="geometry">
            <mxPoint x="342" y="189" as="sourcePoint" />
            <mxPoint x="612" y="189" as="targetPoint" />
          </mxGeometry>
        </mxCell>
        <mxCell id="zDr4J4621kcgVv7S480j-344" value="" style="endArrow=classic;html=1;rounded=0;entryX=0.402;entryY=1;entryDx=0;entryDy=0;entryPerimeter=0;" parent="1" edge="1" target="zDr4J4621kcgVv7S480j-269">
          <mxGeometry width="50" height="50" relative="1" as="geometry">
            <mxPoint x="342" y="189" as="sourcePoint" />
            <mxPoint x="342" y="127" as="targetPoint" />
          </mxGeometry>
        </mxCell>
        <mxCell id="zDr4J4621kcgVv7S480j-345" value="" style="endArrow=classic;html=1;rounded=0;" parent="1" edge="1">
          <mxGeometry width="50" height="50" relative="1" as="geometry">
            <mxPoint x="756" y="188.52" as="sourcePoint" />
            <mxPoint x="702" y="188.52" as="targetPoint" />
          </mxGeometry>
        </mxCell>
        <mxCell id="zDr4J4621kcgVv7S480j-346" value="" style="endArrow=none;html=1;rounded=0;" parent="1" edge="1">
          <mxGeometry width="50" height="50" relative="1" as="geometry">
            <mxPoint x="468" y="126" as="sourcePoint" />
            <mxPoint x="598.5" y="126" as="targetPoint" />
          </mxGeometry>
        </mxCell>
        <mxCell id="zDr4J4621kcgVv7S480j-351" value="Gagal&amp;nbsp;" style="edgeLabel;html=1;align=center;verticalAlign=middle;resizable=0;points=[];" parent="zDr4J4621kcgVv7S480j-346" vertex="1" connectable="0">
          <mxGeometry x="-0.1944" y="3" relative="1" as="geometry">
            <mxPoint as="offset" />
          </mxGeometry>
        </mxCell>
        <mxCell id="zDr4J4621kcgVv7S480j-347" value="" style="endArrow=none;html=1;rounded=0;exitX=0.5;exitY=1;exitDx=0;exitDy=0;" parent="1" source="zDr4J4621kcgVv7S480j-275" edge="1">
          <mxGeometry width="50" height="50" relative="1" as="geometry">
            <mxPoint x="600.9230769230769" y="114.9230769230769" as="sourcePoint" />
            <mxPoint x="598" y="126" as="targetPoint" />
          </mxGeometry>
        </mxCell>
        <mxCell id="zDr4J4621kcgVv7S480j-348" value="" style="endArrow=classic;html=1;rounded=0;entryX=0.613;entryY=1.016;entryDx=0;entryDy=0;entryPerimeter=0;" parent="1" edge="1">
          <mxGeometry width="50" height="50" relative="1" as="geometry">
            <mxPoint x="468.14" y="125.04" as="sourcePoint" />
            <mxPoint x="468.0034999999999" y="107.99999999999999" as="targetPoint" />
          </mxGeometry>
        </mxCell>
        <mxCell id="zDr4J4621kcgVv7S480j-350" value="" style="endArrow=classic;html=1;rounded=0;entryX=0.613;entryY=1.016;entryDx=0;entryDy=0;entryPerimeter=0;" parent="1" edge="1">
          <mxGeometry width="50" height="50" relative="1" as="geometry">
            <mxPoint x="468" y="126" as="sourcePoint" />
            <mxPoint x="468.0034999999999" y="107.99999999999999" as="targetPoint" />
          </mxGeometry>
        </mxCell>
        <mxCell id="wuOp9hcM_mS-S1USVbeP-1" value="Register" style="whiteSpace=wrap;html=1;" vertex="1" parent="1">
          <mxGeometry x="468.25" y="153" width="71.5" height="29" as="geometry" />
        </mxCell>
        <mxCell id="wuOp9hcM_mS-S1USVbeP-5" value="" style="endArrow=classic;html=1;rounded=0;exitX=0.25;exitY=1;exitDx=0;exitDy=0;edgeStyle=orthogonalEdgeStyle;entryX=0;entryY=0.25;entryDx=0;entryDy=0;" edge="1" parent="1" source="zDr4J4621kcgVv7S480j-271" target="wuOp9hcM_mS-S1USVbeP-1">
          <mxGeometry width="50" height="50" relative="1" as="geometry">
            <mxPoint x="540" y="212" as="sourcePoint" />
            <mxPoint x="453" y="162" as="targetPoint" />
          </mxGeometry>
        </mxCell>
        <mxCell id="wuOp9hcM_mS-S1USVbeP-8" value="Belum Punya Akun" style="edgeLabel;html=1;align=center;verticalAlign=middle;resizable=0;points=[];" vertex="1" connectable="0" parent="wuOp9hcM_mS-S1USVbeP-5">
          <mxGeometry x="0.0618" relative="1" as="geometry">
            <mxPoint as="offset" />
          </mxGeometry>
        </mxCell>
        <mxCell id="wuOp9hcM_mS-S1USVbeP-10" value="" style="endArrow=classic;html=1;rounded=0;edgeStyle=orthogonalEdgeStyle;entryX=0.675;entryY=0.875;entryDx=0;entryDy=0;entryPerimeter=0;" edge="1" parent="1" target="zDr4J4621kcgVv7S480j-275">
          <mxGeometry width="50" height="50" relative="1" as="geometry">
            <mxPoint x="540" y="162" as="sourcePoint" />
            <mxPoint x="612" y="162" as="targetPoint" />
          </mxGeometry>
        </mxCell>
        <mxCell id="wuOp9hcM_mS-S1USVbeP-11" value="&lt;font style=&quot;font-size: 9px;&quot;&gt;User mengisi form keluh kesah&lt;/font&gt;" style="whiteSpace=wrap;html=1;" vertex="1" parent="1">
          <mxGeometry x="234.5" y="512" width="71.5" height="34" as="geometry" />
        </mxCell>
        <mxCell id="wuOp9hcM_mS-S1USVbeP-13" value="&lt;span style=&quot;font-size: 9px;&quot;&gt;User mengisi form buat jadwal&amp;nbsp;&lt;/span&gt;" style="whiteSpace=wrap;html=1;" vertex="1" parent="1">
          <mxGeometry x="157" y="512" width="71.5" height="34" as="geometry" />
        </mxCell>
        <mxCell id="wuOp9hcM_mS-S1USVbeP-15" value="&lt;font style=&quot;font-size: 8px;&quot;&gt;User mengisi form Administrasi&lt;/font&gt;" style="whiteSpace=wrap;html=1;" vertex="1" parent="1">
          <mxGeometry x="79" y="512" width="71.5" height="34" as="geometry" />
        </mxCell>
        <mxCell id="wuOp9hcM_mS-S1USVbeP-17" value="&lt;span style=&quot;font-size: 9px;&quot;&gt;User mengisi form Lapor&lt;/span&gt;" style="whiteSpace=wrap;html=1;" vertex="1" parent="1">
          <mxGeometry x="0.5" y="512" width="71.5" height="34" as="geometry" />
        </mxCell>
      </root>
    </mxGraphModel>
  </diagram>
</mxfile>
